inDegrees=yes
name=ik_lifting_orientations
DataType=double
version=3
OpenSimVersion=4.5-2024-01-10-34fd6af
endheader
time	pelvis_tilt	pelvis_list	pelvis_rotation	pelvis_tx	pelvis_ty	pelvis_tz	hip_flexion_r	hip_adduction_r	hip_rotation_r	knee_angle_r	knee_angle_r_beta	ankle_angle_r	subtalar_angle_r	mtp_angle_r	hip_flexion_l	hip_adduction_l	hip_rotation_l	knee_angle_l	knee_angle_l_beta	ankle_angle_l	subtalar_angle_l	mtp_angle_l	lumbar_extension	lumbar_bending	lumbar_rotation	arm_flex_r	arm_add_r	arm_rot_r	elbow_flex_r	pro_sup_r	wrist_flex_r	wrist_dev_r	arm_flex_l	arm_add_l	arm_rot_l	elbow_flex_l	pro_sup_l	wrist_flex_l	wrist_dev_l
1.22	-2.251716790463715	11.09871095618923	5.893942115153256	0	0.9399999998679526	0	43.98360080135536	-10.06242372714665	0	60.71675195789967	1.059707232782063	-4.994189226673979	0	0	43.98360080135536	-10.06242372714665	0	60.71675195789967	1.059707232782063	-4.994189226673979	0	0	-0.08602210029787821	-39.29456199209582	4.457150029930291	37.17444695613828	-35.07558293076936	-6.724760235630826	75.12786492436783	-0.1050597823577889	0	0	0	-12.2561258303694	0	90.47121428469885	-0.1050597823577889	0	0
1.23	-2.237155651682385	11.09132043532269	5.885796291560827	0	0.9399999998679526	0	43.98415911523715	-10.06230387732283	0	60.71644327784515	1.059701845298776	-4.994203778399689	0	0	43.98415911523715	-10.06230387732283	0	60.71644327784515	1.059701845298776	-4.994203778399689	0	0	-1.069399898378096	-38.62591183000375	3.680834297129671	39.15065689192899	-37.0942361596051	-5.961460028900851	78.17796832068683	-0.1050196917401488	0	0	0	-12.25689737469251	0	90.47103425589901	-0.1050196917401488	0	0
1.24	-2.339501790687085	12.6424150624235	5.857898690266694	0	0.9399999998679526	0	43.98440114533516	-10.06225225562513	0	60.71630892531649	1.059699500404793	-4.994210036081318	0	0	43.98440114533516	-10.06225225562513	0	60.71630892531649	1.059699500404793	-4.994210036081318	0	0	-1.280496156474392	-39.63018647801666	4.298565143110464	40.39626830890198	-39.51232840778467	-4.991216313192669	79.83636640242953	-0.1050022833576594	0	0	0	-12.25723285247149	0	90.47095608276062	-0.1050022833576594	0	0
1.25	-2.312070163865411	12.63381660688194	5.90451873733592	0	0.9399999998679526	0	43.98512502181403	-10.06209723299913	0	60.71590856582326	1.059692512813444	-4.994228840311715	0	0	43.98512502181403	-10.06209723299913	0	60.71590856582326	1.059692512813444	-4.994228840311715	0	0	-2.569511377046874	-38.37240793931472	3.97723933978037	41.47480673234335	-43.33126022214302	-5.398896662514991	84.32131134885256	-0.1049502871531846	0	0	0	-12.2582337331376	0	90.47072259137822	-0.1049502871531846	0	0
1.26	-3.101514958951007	13.36688323951992	5.60272535040536	0	0.9399999998679526	0	43.98627231428268	-10.0618516287545	0	60.71527485629386	1.059681452495655	-4.994258613960199	0	0	43.98627231428268	-10.0618516287545	0	60.71527485629386	1.059681452495655	-4.994258613960199	0	0	-1.111543749502834	-37.49569415610327	4.020685355481827	45.19497928173798	-45.38439652416916	-1.470503572684327	85.40862133956111	-0.1048679015218639	0	0	0	-12.2598190774544	0	90.4703526348432	-0.1048679015218639	0	0
1.27	-2.808117221651737	14.42627767503911	6.632694118961496	0	0.9399999998679526	0	43.98798827175457	-10.06148604043788	0	60.71432570315775	1.059664886648324	-4.994302856809414	0	0	43.98798827175457	-10.06148604043788	0	60.71432570315775	1.059664886648324	-4.994302856809414	0	0	-2.23508141880366	-34.38871646277205	3.283915321804389	48.42084719469324	-51.02352514272134	2.456289544468676	89.07639301538697	-0.1047445761350325	0	0	0	-12.26219369243573	0	90.46979883649908	-0.1047445761350325	0	0
1.28	-3.568357361190179	15.16113208923927	6.364611369253987	0	0.9399999998679526	0	43.98931843136601	-10.06120715547798	0	60.71358494616608	1.059651957999862	-4.99433643871963	0	0	43.98931843136601	-10.06120715547798	0	60.71358494616608	1.059651957999862	-4.99433643871963	0	0	-1.956454707031722	-32.28246428166855	3.124973776575882	51.74431976595206	-55.75151183584385	4.352315787432905	95.3692613154615	-0.1046486714392718	0	0	0	-12.26404470456734	0	90.46936817224353	-0.1046486714392718	0	0
1.29	-2.895740804274764	15.98912819555637	6.623238876303039	0	0.9399999998679526	0	43.99252701143196	-10.06053043951971	0	60.71181002787932	1.059620979831805	-4.994417964295743	0	0	43.99252701143196	-10.06053043951971	0	60.71181002787932	1.059620979831805	-4.994417964295743	0	0	-2.708753866351167	-29.40049659899422	2.590934774088371	56.73673256424176	-61.55178622888637	8.121990866582204	102.8149117819742	-0.1044178508247621	0	0	0	-12.26849104996262	0	90.46833166179552	-0.1044178508247621	0	0
1.3	-4.359894547824191	15.90011444304379	6.167139901052019	0	0.9399999998679526	0	43.99638937531454	-10.05972338832466	0	60.70967173907885	1.059583659651878	-4.994514807297654	0	0	43.99638937531454	-10.05972338832466	0	60.70967173907885	1.059583659651878	-4.994514807297654	0	0	-1.460657149205581	-27.89982697125606	2.89677337618162	61.01802591498393	-65.67066252534156	9.700500050868675	110.5489191022499	-0.1041396867079226	0	0	0	-12.27385290297961	0	90.46708255345405	-0.1041396867079226	0	0
1.31	-4.326133762548869	15.90462787344708	6.135902369158683	0	0.9399999998679526	0	43.99881756326815	-10.05921808640369	0	60.70832865632142	1.059560218435634	-4.994575308076342	0	0	43.99881756326815	-10.05921808640369	0	60.70832865632142	1.059560218435634	-4.994575308076342	0	0	-1.449675605877718	-26.52608905174161	2.958154899956641	66.47972112768159	-67.76253410308288	14.51315818036276	113.1542412489743	-0.1039647651690939	0	0	0	-12.27722496515309	0	90.46629706056665	-0.1039647651690939	0	0
1.32	-4.328959307139957	15.91329134596697	6.133211754033502	0	0.9399999998679526	0	44.00152352902693	-10.05865782830831	0	60.7068320422247	1.059534097592014	-4.994642232410074	0	0	44.00152352902693	-10.05865782830831	0	60.7068320422247	1.059534097592014	-4.994642232410074	0	0	-1.44224930656802	-26.53095235472579	2.967596009220272	67.20808161925491	-69.69985962184074	12.91924844356543	118.9847292130386	-0.1037697389529137	0	0	0	-12.28098547448032	0	90.46542128682195	-0.1037697389529137	0	0
1.33	-4.321963787234004	15.90602144792973	6.138232848355993	0	0.9399999998679526	0	44.00200103877615	-10.05856039088488	0	60.70656575223386	1.059529449954909	-4.994653825994732	0	0	44.00200103877615	-10.05856039088488	0	60.70656575223386	1.059529449954909	-4.994653825994732	0	0	-2.488500851295151	-25.31113596061204	2.930139860863018	70.01029358203299	-72.93801367631546	12.32828117605798	125.3603701631442	-0.1037351999171993	0	0	0	-12.28165338052627	0	90.465266187859	-0.1037351999171993	0	0
1.34	-4.332305588952869	15.90198836489448	6.143403638411732	0	0.9399999998679526	0	44.00503747648045	-10.05793688223911	0	60.70488547375046	1.059500123563023	-4.994728038602476	0	0	44.00503747648045	-10.05793688223911	0	60.70488547375046	1.059500123563023	-4.994728038602476	0	0	-2.485558634800398	-25.33600911903447	2.926011318434736	72.79311762865559	-72.43058454046877	14.81849591473393	125.5757804397024	-0.1035161457204102	0	0	0	-12.28587954527993	0	90.46428251559212	-0.1035161457204102	0	0
1.35	-3.558716965798336	15.16248280523306	6.377023467311353	0	0.9399999998679526	0	44.00845510768274	-10.05724148741506	0	60.70299263286027	1.059467087257273	-4.994810486114338	0	0	44.00845510768274	-10.05724148741506	0	60.70299263286027	1.059467087257273	-4.994810486114338	0	0	-3.34032203882898	-24.5034230635985	2.477937442262869	77.99365104667211	-72.51616391188334	20.10952802579377	125.9003707504383	-0.1032693130617244	0	0	0	-12.29064488051419	0	90.46317410317627	-0.1032693130617244	0	0
1.36	-3.452651248358574	13.60990227942479	6.373400107458736	0	0.9399999998679526	0	44.01157143212121	-10.05661245933535	0	60.70126500700085	1.059436934497784	-4.994884816805173	0	0	44.01157143212121	-10.05661245933535	0	60.70126500700085	1.059436934497784	-4.994884816805173	0	0	-3.230952282044883	-22.95246636163248	2.551054619804433	85.10489730123248	-70.60088392718912	28.67320178843255	122.3468010067157	-0.1030440065462567	0	0	0	-12.29499747486633	0	90.46216235499696	-0.1030440065462567	0	0
1.37	-3.747395690998806	12.56543724759818	5.345899725263738	0	0.9399999998679526	0	44.013881454348	-10.0561503270073	0	60.6999815016413	1.059414533103292	-4.994939243719078	0	0	44.013881454348	-10.0561503270073	0	60.6999815016413	1.059414533103292	-4.994939243719078	0	0	-3.159587511559172	-21.25149478043296	3.221837726416766	90.88112748657318	-69.70366026976596	33.41209723117952	122.5927510981404	-0.1028767477281504	0	0	0	-12.29823205685154	0	90.46141127257698	-0.1028767477281504	0	0
1.38	-4.116010990574246	10.76349350727087	6.172987469353028	0	0.9399999998679526	0	44.01601762379755	-10.05572457187891	0	60.69879587688172	1.059393840047545	-4.994989283360014	0	0	44.01601762379755	-10.05572457187891	0	60.69879587688172	1.059393840047545	-4.994989283360014	0	0	-2.876096243183847	-19.45281708473928	2.514832401893464	95.85741672498662	-69.75289630075703	38.3857080622448	123.3208671864081	-0.1027220638415649	0	0	0	-12.30122314429675	0	90.46071665841332	-0.1027220638415649	0	0
1.39	-4.129785754562401	10.77401254469083	6.187602377869587	0	0.9399999998679526	0	44.0164578367182	-10.05563754922827	0	60.69855054549665	1.059389558207117	-4.994999486947917	0	0	44.0164578367182	-10.05563754922827	0	60.69855054549665	1.059389558207117	-4.994999486947917	0	0	-2.867252751677065	-19.48746441909718	2.47983528000812	96.96169483916265	-71.10333083444706	38.43543430112599	126.7294699843948	-0.1026901277771028	0	0	0	-12.30184158923384	0	90.46057324828244	-0.1026901277771028	0	0
